<svg width="68" height="36" viewBox="0 0 68 36" fill="none" xmlns="http://www.w3.org/2000/svg">
<path d="M11.7043 22.084C10.9483 22.084 10.2716 21.9207 9.67429 21.594C9.08629 21.2673 8.62429 20.8193 8.28829 20.25C7.95229 19.6713 7.78429 19.018 7.78429 18.29C7.78429 17.562 7.95229 16.9133 8.28829 16.344C8.62429 15.7653 9.08629 15.3173 9.67429 15C10.2716 14.6733 10.9483 14.51 11.7043 14.51C12.3763 14.51 12.9736 14.6453 13.4963 14.916C14.0283 15.1867 14.439 15.5787 14.7283 16.092L13.7063 16.75C13.473 16.3953 13.1836 16.1293 12.8383 15.952C12.493 15.7747 12.1103 15.686 11.6903 15.686C11.205 15.686 10.7663 15.7933 10.3743 16.008C9.99162 16.2227 9.68829 16.5307 9.46429 16.932C9.24962 17.324 9.14229 17.7767 9.14229 18.29C9.14229 18.8127 9.24962 19.2747 9.46429 19.676C9.68829 20.068 9.99162 20.3713 10.3743 20.586C10.7663 20.8007 11.205 20.908 11.6903 20.908C12.1103 20.908 12.493 20.8193 12.8383 20.642C13.1836 20.4647 13.473 20.1987 13.7063 19.844L14.7283 20.488C14.439 21.0013 14.0283 21.398 13.4963 21.678C12.9736 21.9487 12.3763 22.084 11.7043 22.084ZM20.3346 14.51C21.2773 14.51 22.024 14.7853 22.5746 15.336C23.1346 15.8773 23.4146 16.6753 23.4146 17.73V22H22.0706V17.884C22.0706 17.1653 21.898 16.624 21.5526 16.26C21.2073 15.896 20.7126 15.714 20.0686 15.714C19.3406 15.714 18.7666 15.9287 18.3466 16.358C17.9266 16.778 17.7166 17.3847 17.7166 18.178V22H16.3726V11.612H17.7166V15.63C17.9966 15.2753 18.3606 15 18.8086 14.804C19.266 14.608 19.7746 14.51 20.3346 14.51ZM28.6039 14.51C29.6306 14.51 30.4146 14.762 30.9559 15.266C31.5066 15.77 31.7819 16.5213 31.7819 17.52V22H30.5079V21.02C30.2839 21.3653 29.9619 21.6313 29.5419 21.818C29.1313 21.9953 28.6413 22.084 28.0719 22.084C27.2413 22.084 26.5739 21.8833 26.0699 21.482C25.5753 21.0807 25.3279 20.5533 25.3279 19.9C25.3279 19.2467 25.5659 18.724 26.0419 18.332C26.5179 17.9307 27.2739 17.73 28.3099 17.73H30.4379V17.464C30.4379 16.8853 30.2699 16.442 29.9339 16.134C29.5979 15.826 29.1033 15.672 28.4499 15.672C28.0113 15.672 27.5819 15.7467 27.1619 15.896C26.7419 16.036 26.3873 16.2273 26.0979 16.47L25.5379 15.462C25.9206 15.154 26.3779 14.9207 26.9099 14.762C27.4419 14.594 28.0066 14.51 28.6039 14.51ZM28.2959 21.048C28.8093 21.048 29.2526 20.936 29.6259 20.712C29.9993 20.4787 30.2699 20.152 30.4379 19.732V18.696H28.3659C27.2273 18.696 26.6579 19.0787 26.6579 19.844C26.6579 20.2173 26.8026 20.5113 27.0919 20.726C27.3813 20.9407 27.7826 21.048 28.2959 21.048ZM38.2311 14.51C39.1738 14.51 39.9205 14.7853 40.4711 15.336C41.0311 15.8773 41.3111 16.6753 41.3111 17.73V22H39.9671V17.884C39.9671 17.1653 39.7945 16.624 39.4491 16.26C39.1038 15.896 38.6091 15.714 37.9651 15.714C37.2371 15.714 36.6631 15.9287 36.2431 16.358C35.8231 16.778 35.6131 17.3847 35.6131 18.178V22H34.2691V14.58H35.5571V15.7C35.8278 15.3173 36.1918 15.0233 36.6491 14.818C37.1158 14.6127 37.6431 14.51 38.2311 14.51ZM50.9374 14.58V20.992C50.9374 22.2893 50.6154 23.246 49.9714 23.862C49.3274 24.4873 48.3661 24.8 47.0874 24.8C46.3874 24.8 45.7201 24.702 45.0854 24.506C44.4508 24.3193 43.9374 24.0487 43.5454 23.694L44.1894 22.658C44.5348 22.9567 44.9594 23.19 45.4634 23.358C45.9768 23.5353 46.5041 23.624 47.0454 23.624C47.9134 23.624 48.5528 23.4187 48.9634 23.008C49.3834 22.5973 49.5934 21.972 49.5934 21.132V20.544C49.2761 20.9267 48.8841 21.216 48.4174 21.412C47.9601 21.5987 47.4608 21.692 46.9194 21.692C46.2101 21.692 45.5661 21.5427 44.9874 21.244C44.4181 20.936 43.9701 20.5113 43.6434 19.97C43.3168 19.4193 43.1534 18.794 43.1534 18.094C43.1534 17.394 43.3168 16.7733 43.6434 16.232C43.9701 15.6813 44.4181 15.2567 44.9874 14.958C45.5661 14.6593 46.2101 14.51 46.9194 14.51C47.4794 14.51 47.9974 14.6127 48.4734 14.818C48.9588 15.0233 49.3554 15.3267 49.6634 15.728V14.58H50.9374ZM47.0734 20.516C47.5588 20.516 47.9928 20.4133 48.3754 20.208C48.7674 20.0027 49.0708 19.718 49.2854 19.354C49.5094 18.9807 49.6214 18.5607 49.6214 18.094C49.6214 17.3753 49.3834 16.7967 48.9074 16.358C48.4314 15.91 47.8201 15.686 47.0734 15.686C46.3174 15.686 45.7014 15.91 45.2254 16.358C44.7494 16.7967 44.5114 17.3753 44.5114 18.094C44.5114 18.5607 44.6188 18.9807 44.8334 19.354C45.0574 19.718 45.3608 20.0027 45.7434 20.208C46.1354 20.4133 46.5788 20.516 47.0734 20.516ZM60.2114 18.332C60.2114 18.4347 60.2021 18.57 60.1834 18.738H54.1634C54.2474 19.3913 54.5321 19.9187 55.0174 20.32C55.5121 20.712 56.1234 20.908 56.8514 20.908C57.7381 20.908 58.4521 20.6093 58.9934 20.012L59.7354 20.88C59.3994 21.272 58.9794 21.5707 58.4754 21.776C57.9808 21.9813 57.4254 22.084 56.8094 22.084C56.0254 22.084 55.3301 21.9253 54.7234 21.608C54.1168 21.2813 53.6454 20.8287 53.3094 20.25C52.9828 19.6713 52.8194 19.018 52.8194 18.29C52.8194 17.5713 52.9781 16.9227 53.2954 16.344C53.6221 15.7653 54.0654 15.3173 54.6254 15C55.1948 14.6733 55.8341 14.51 56.5434 14.51C57.2528 14.51 57.8828 14.6733 58.4334 15C58.9934 15.3173 59.4274 15.7653 59.7354 16.344C60.0528 16.9227 60.2114 17.5853 60.2114 18.332ZM56.5434 15.644C55.8994 15.644 55.3581 15.84 54.9194 16.232C54.4901 16.624 54.2381 17.1373 54.1634 17.772H58.9234C58.8488 17.1467 58.5921 16.638 58.1534 16.246C57.7241 15.8447 57.1874 15.644 56.5434 15.644Z" fill="#E5E5E5"/>
<line x1="27" y1="13" x2="37.5" y2="13" stroke="#E5E5E5" stroke-width="2"/>
<line x1="36.2929" y1="12.8995" x2="46.8995" y2="2.29289" stroke="#E5E5E5" stroke-width="2"/>
<line x1="17.7071" y1="2.29289" x2="28.3137" y2="12.8995" stroke="#E5E5E5" stroke-width="2"/>
<line x1="37.6066" y1="24" x2="27.1066" y2="24" stroke="#E5E5E5" stroke-width="2"/>
<line x1="28.3137" y1="24.1005" x2="17.7071" y2="34.7071" stroke="#E5E5E5" stroke-width="2"/>
<line x1="46.8995" y1="34.7071" x2="36.2929" y2="24.1005" stroke="#E5E5E5" stroke-width="2"/>
</svg>
